PathFileType	4	(X/Y/Z)	C:/Users/opensim2020/Desktop/walking_exp_matlab/subject01_walking10_straight_03.trc																																																																																																																															
DataRate	CameraRate	NumFrames	NumMarkers	Units	OrigDataRate	OrigDataStartFrame	OrigNumFrames																																																																																																																											
100	100	5	43	mm	100	3127	317																																																																																																																											
Frame#	Time	LFHD			RFHD			LBHD			RBHD			C7			T10			CLAV			STRN			RBAK			LSHO			LUPA			LELB			LFRM			LWRA			LWRB			LFIN			RSHO			RUPA			RELB			RFRM			RWRA			RWRB			RFIN			LASI			RASI			LPSI			RPSI			LTHI			LKNE			LTIB			LANK			LHEE			LTOE			RTHI			RKNE			RTIB			RANK			RHEE			RTOE			*39			*40			*41			*42		
		X1	Y1	Z1	X2	Y2	Z2	X3	Y3	Z3	X4	Y4	Z4	X5	Y5	Z5	X6	Y6	Z6	X7	Y7	Z7	X8	Y8	Z8	X9	Y9	Z9	X10	Y10	Z10	X11	Y11	Z11	X12	Y12	Z12	X13	Y13	Z13	X14	Y14	Z14	X15	Y15	Z15	X16	Y16	Z16	X17	Y17	Z17	X18	Y18	Z18	X19	Y19	Z19	X20	Y20	Z20	X21	Y21	Z21	X22	Y22	Z22	X23	Y23	Z23	X24	Y24	Z24	X25	Y25	Z25	X26	Y26	Z26	X27	Y27	Z27	X28	Y28	Z28	X29	Y29	Z29	X30	Y30	Z30	X31	Y31	Z31	X32	Y32	Z32	X33	Y33	Z33	X34	Y34	Z34	X35	Y35	Z35	X36	Y36	Z36	X37	Y37	Z37	X38	Y38	Z38	X39	Y39	Z39	X40	Y40	Z40	X41	Y41	Z41	X42	Y42	Z42	X43	Y43	Z43
																																																																																																																																		
278	2.77	1002.91962	1671.86389	1343.69727	1044.64539	1677.38147	1449.42517	888.06879	1639.41895	1382.30957	929.52368	1644.37073	1494.70984	847.81061	1436.60596	1414.24109	821.24323	1141.90295	1423.97766	991.14185	1370.16956	1413.29993	1039.05713	1217.34534	1410.07495	796.52875	1239.78833	1490.71777	932.30023	1398.55078	1252.32764	916.74902	1210.04529	1171.32129	915.62445	1057.43774	1177.47131	970.14819	957.17505	1153.11987	1070.62292	859.53864	1167.10754	1015.41669	843.59247	1148.60693	1074.97083	782.94965	1137.02209	927.42969	1398.61597	1565.75098	860.53577	1200.18799	1663.04968	858.20605	1075.40076	1667.19824	886.47821	958.22778	1700.50134	971.98602	844.57306	1688.14709	926.17535	844.14069	1724.30127	966.534	768.23425	1725.92468	992.91833	937.32385	1317.05969	993.67828	938.73138	1533.65552	805.86133	950.79181	1372.48743	810.43591	951.72089	1518.5592	980.57782	603.92737	1276.74182	981.47144	470.38391	1301.172	929.35614	287.00726	1302.09558	902.36395	74.69103	1366.67395	858.78088	46.07521	1420.62366	1048.68982	39.35773	1352.02942	1007.6756	610.72723	1602.83862	1038.50977	455.63882	1584.88037	907.46747	336.74734	1584.91663	778.26422	176.59404	1536.58154	721.06836	164.34659	1480.78931	871.99518	70.53039	1543.78918	1030.37183	1711.44019	1428.35803	1973.03491	1023.40399	-3101.7627	2012.61255	1022.05023	-3140.54053	NaN	NaN	NaN
279	2.78	1009.99396	1671.94995	1343.12573	1051.90173	1677.35876	1448.76147	895.21497	1639.72705	1381.80566	936.78296	1644.52783	1494.20752	854.63361	1436.94189	1413.47461	827.61279	1142.31018	1423.02991	997.84564	1370.29565	1412.45667	1045.5824	1217.43909	1409.08704	803.00476	1240.17993	1489.90613	939.0827	1399.05798	1251.59973	924.56635	1210.69519	1170.30298	924.37164	1058.08289	1176.16553	980.32275	958.29663	1151.91724	1082.33044	862.29199	1165.74219	1027.302	845.45618	1147.45117	1087.74011	785.77423	1135.90674	934.22717	1398.69958	1564.90002	866.76947	1200.45508	1662.06946	863.98602	1075.75598	1666.05444	891.40332	958.40839	1699.36938	976.10596	844.07196	1687.1748	930.23859	844.0813	1723.27222	969.85498	767.57892	1724.67188	999.02441	937.34656	1315.97986	1000.17975	939.34235	1532.41907	811.99359	950.82666	1372.06299	816.85229	951.75177	1517.98401	983.77588	603.58435	1276.25696	983.70941	469.97894	1300.62256	930.60767	286.86975	1301.83228	902.41742	74.75621	1366.68933	858.98621	46.20267	1420.75671	1048.72083	39.3358	1352.08606	1018.03558	612.20844	1601.68799	1050.974	457.12787	1583.04614	923.84344	334.70172	1584.07739	799.05591	170.32101	1535.7417	742.51343	155.99257	1480.06555	896.86774	68.61108	1545.20044	1037.67834	1711.48352	1427.7572	1973.09973	1023.41949	-3101.91626	2012.5625	1022.12097	-3140.72705	NaN	NaN	NaN
280	2.79	1017.11273	1672.06445	1342.54065	1059.14929	1677.2915	1448.14063	902.1698	1640.0686	1381.448	944.02954	1644.61487	1493.76721	861.36969	1437.30164	1412.84973	833.8653	1142.6377	1422.1051	1004.55231	1370.41736	1411.70508	1052.20483	1217.66504	1408.34351	809.54431	1240.50732	1489.06628	945.65607	1399.46997	1250.9353	932.16516	1211.20349	1169.30823	933.0694	1058.35901	1174.90332	990.45654	959.49945	1150.75403	1093.8512	865.00708	1164.59729	1039.04773	847.32184	1146.29712	1100.4469	788.41443	1134.46997	941.10297	1398.77795	1564.19336	873.19568	1200.64001	1661.18311	869.90582	1076.00891	1665.02795	896.39685	958.48071	1698.33362	980.31274	843.52063	1686.26099	934.60278	844.16187	1722.59119	973.37927	767.02692	1723.59497	1004.76825	937.13477	1314.85364	1006.62372	939.84686	1531.37305	818.11469	950.84314	1371.59692	823.30103	951.99231	1517.73596	986.90594	603.23981	1275.79614	985.77887	469.60733	1300.18787	931.91333	286.68408	1301.61108	902.5025	74.78682	1366.71606	859.68158	46.16853	1421.23987	1048.78247	39.26653	1351.97742	1028.3949	613.8302	1601.0603	1063.20349	459.01089	1581.66309	939.86847	332.5755	1583.27258	821.05182	164.30525	1535.60535	764.75525	147.41237	1479.65247	922.15778	66.56174	1546.59692	1044.96106	1711.4541	1427.22485	1973.15259	1023.4126	-3101.89063	2012.43896	1022.09924	-3140.69263	NaN	NaN	NaN
281	2.8	1024.13391	1672.12939	1341.97205	1065.9613	1676.97717	1446.84082	909.66351	1640.18213	1381.17151	951.26105	1644.65369	1493.27612	868.17908	1437.54639	1412.20703	840.29004	1142.97253	1421.26855	1011.29114	1370.48926	1411.02991	1058.78943	1217.72412	1407.47046	816.05115	1240.81946	1488.31836	952.1922	1399.89429	1250.37219	939.81104	1211.70813	1168.3606	941.64105	1058.89587	1173.80945	1000.46973	960.60144	1149.54822	1105.28345	867.74719	1163.34412	1050.74622	849.18219	1145.16797	1112.84814	791.24573	1133.36255	947.91504	1398.80835	1563.4668	879.71692	1200.72839	1660.41931	875.95825	1076.19775	1664.09082	901.60242	958.52679	1697.3429	984.64276	842.90704	1685.28247	938.64355	843.65027	1721.28931	977.00854	766.41882	1722.54041	1010.72791	936.96057	1313.98694	1013.01709	940.22266	1530.36267	824.24854	950.90356	1371.08289	829.80029	952.17157	1517.4054	990.10406	602.8692	1275.25586	987.81842	469.17133	1299.59924	933.19379	286.52896	1301.2384	902.60614	74.79804	1366.69812	859.66089	46.2581	1421.27319	1048.78174	39.23177	1351.89893	1038.354	615.31915	1600.31763	1075.01416	461.01379	1580.37952	955.46887	329.98816	1582.19739	843.18982	157.76677	1535.33154	787.48334	138.34834	1479.24658	948.15454	64.81077	1548.00598	1052.22168	1711.42676	1426.67639	1973.14282	1023.35248	-3101.99219	2012.5166	1021.96094	-3140.73242	NaN	NaN	NaN
282	2.81	1031.16479	1672.23279	1341.55078	1073.17676	1676.90308	1446.37659	916.44958	1640.46057	1380.729	958.49866	1644.72437	1492.89612	874.93408	1437.72668	1411.55115	846.7533	1143.14587	1420.42236	1018.03357	1370.55725	1410.34607	1065.3783	1217.73828	1406.68762	822.67316	1240.93982	1487.45313	958.93695	1400.20972	1249.74341	947.51544	1212.21057	1167.41284	950.40399	1059.28235	1172.6604	1010.52679	961.8172	1148.38025	1116.55823	870.4577	1162.15503	1062.3446	851.08447	1144.10193	1125.36267	794.07629	1132.18689	954.73602	1398.77368	1562.80347	886.3736	1200.75562	1659.68701	882.1908	1076.35913	1663.32556	906.92139	958.47333	1696.42908	989.00403	842.25897	1684.39551	943.28772	843.53961	1720.6438	980.77423	765.75452	1721.51538	1016.71527	936.67896	1313.13025	1019.44812	940.57819	1529.51099	830.35437	950.97864	1370.59656	836.19141	952.27814	1516.95654	993.28467	602.50916	1274.8103	989.88477	468.8374	1298.96533	934.39606	286.47375	1300.89063	902.73407	74.89581	1366.72656	859.6192	46.5084	1421.34595	1048.81274	39.19887	1351.86951	1047.922	616.68524	1599.59692	1086.29285	462.95883	1579.22949	971.33087	327.70581	1581.57947	865.6051	151.03636	1534.98926	810.84296	129.51259	1479.40283	974.45868	63.09712	1549.18115	1059.47449	1711.33545	1426.17676	1973.10803	1023.29572	-3101.9834	2012.56433	1022.08295	-3140.68335	NaN	NaN	NaN
